PathFileType	4	(X/Y/Z)	/home/nbianco/projects/addbio/data/HamnerRunning2013/Processed/subject11//results/MarkerData/run400.trc
DataRate	CameraRate	NumFrames	NumMarkers	Units	OrigDataRate	OrigDataStartFrame	OrigNumFrames
100	100	10	42	m	100	116	187
Frame#	Time	C7			CLAV			LACR			LASI			LCAL			LFAradius			LFAsuperior			LFAulna			LLEL			LMEL			LMT5			LPSI			LTB1			LTB2			LTB3			LTH1			LTH2			LTH3			LTOE			LUA1			LUA2			LUA3			RACR			RASI			RCAL			RFAradius			RFAsuperior			RFAulna			RLEL			RMEL			RMT5			RPSI			RTB1			RTB2			RTB3			RTH1			RTH2			RTH3			RTOE			RUA1			RUA2			RUA3		
		X1	Y1	Z1	X2	Y2	Z2	X3	Y3	Z3	X4	Y4	Z4	X5	Y5	Z5	X6	Y6	Z6	X7	Y7	Z7	X8	Y8	Z8	X9	Y9	Z9	X10	Y10	Z10	X11	Y11	Z11	X12	Y12	Z12	X13	Y13	Z13	X14	Y14	Z14	X15	Y15	Z15	X16	Y16	Z16	X17	Y17	Z17	X18	Y18	Z18	X19	Y19	Z19	X20	Y20	Z20	X21	Y21	Z21	X22	Y22	Z22	X23	Y23	Z23	X24	Y24	Z24	X25	Y25	Z25	X26	Y26	Z26	X27	Y27	Z27	X28	Y28	Z28	X29	Y29	Z29	X30	Y30	Z30	X31	Y31	Z31	X32	Y32	Z32	X33	Y33	Z33	X34	Y34	Z34	X35	Y35	Z35	X36	Y36	Z36	X37	Y37	Z37	X38	Y38	Z38	X39	Y39	Z39	X40	Y40	Z40	X41	Y41	Z41	X42	Y42	Z42

117	1.7	0.69932	1.52506	-0.32069	0.812701	1.44474	-0.262512	0.793289	1.49093	-0.469273	0.78987	1.02032	-0.428645	0.200992	0.241189	-0.342761	0.981971	1.19459	-0.442056	0.871747	1.1777	-0.560287	0.99606	1.12905	-0.469759	0.771367	1.16971	-0.606706	0.728574	1.15628	-0.537981	0.297479	0.0764816	-0.393872	0.614944	1.05492	-0.354624	0.470548	0.398122	-0.358101	0.384062	0.359355	-0.42175	0.371526	0.27621	-0.350855	0.649339	0.845848	-0.47882	0.66793	0.707621	-0.450989	0.56663	0.621421	-0.435383	0.346641	0.0715372	-0.301364	0.776275	1.39864	-0.552487	0.719129	1.31588	-0.539771	0.750395	1.25373	-0.58552	0.732728	1.52449	-0.148352	0.775395	1.02911	-0.1692	0.778345	0.164654	-0.261554	0.673027	1.10127	-0.0380091	0.56113	1.21412	-0.0242403	0.61085	1.0649	-0.0406414	0.491142	1.2953	-0.0483387	0.493136	1.28821	-0.13053	0.938503	0.0902698	-0.177881	0.607426	1.04927	-0.251957	0.961575	0.44121	-0.23557	0.919628	0.388443	-0.175508	0.912282	0.27776	-0.238814	0.73538	0.841358	-0.127995	0.865695	0.780822	-0.135666	0.858686	0.653037	-0.171185	0.995416	0.10292	-0.256463	0.646486	1.4772	-0.0798015	0.572604	1.4282	-0.126448	0.567063	1.3774	-0.0639624
118	1.71	0.699443	1.52832	-0.320232	0.812215	1.44831	-0.260803	0.795029	1.49542	-0.467189	0.792016	1.02302	-0.427044	0.190133	0.263721	-0.347144	0.980577	1.20581	-0.435303	0.874967	1.18579	-0.556764	0.997726	1.14059	-0.462253	0.776847	1.17534	-0.606659	0.73147	1.16157	-0.539157	0.266215	0.0874604	-0.39526	0.617241	1.05947	-0.354917	0.457844	0.407261	-0.360736	0.370221	0.371653	-0.424963	0.356396	0.287499	-0.35506	0.64572	0.851502	-0.479558	0.662147	0.711994	-0.453217	0.558936	0.629038	-0.436218	0.315018	0.0781239	-0.303861	0.780607	1.40416	-0.551561	0.723308	1.32184	-0.541697	0.755414	1.25931	-0.58623	0.731679	1.5275	-0.14768	0.777667	1.03339	-0.169283	0.821029	0.144659	-0.261372	0.668736	1.10734	-0.0393876	0.555802	1.22002	-0.0272538	0.606531	1.07074	-0.0433396	0.486274	1.30154	-0.0525143	0.490347	1.29471	-0.134407	0.990206	0.0912527	-0.17996	0.609607	1.054	-0.252286	0.969803	0.442157	-0.236191	0.9355	0.384585	-0.175385	0.93994	0.274379	-0.241524	0.735647	0.846798	-0.128347	0.86498	0.783623	-0.137081	0.855043	0.655487	-0.171912	1.04452	0.113611	-0.26221	0.644289	1.48189	-0.0804688	0.571356	1.43388	-0.128804	0.563274	1.38323	-0.066933
119	1.72	0.699585	1.53076	-0.319641	0.811925	1.4509	-0.259433	0.795958	1.49902	-0.465331	0.79291	1.0255	-0.426147	0.182216	0.286239	-0.351411	0.978395	1.21431	-0.429238	0.877302	1.19231	-0.553595	0.998294	1.14973	-0.455568	0.781405	1.18015	-0.606829	0.7337	1.16598	-0.540637	0.235694	0.10157	-0.397277	0.618747	1.06339	-0.355233	0.448634	0.413986	-0.36249	0.360088	0.381885	-0.427437	0.343197	0.297856	-0.358225	0.645185	0.856131	-0.479541	0.65906	0.715316	-0.454713	0.555116	0.634158	-0.436521	0.284316	0.0869873	-0.307148	0.78369	1.40885	-0.550649	0.726585	1.32664	-0.543023	0.759432	1.2641	-0.586898	0.731276	1.52944	-0.146851	0.77983	1.03623	-0.169693	0.861215	0.12802	-0.260177	0.66617	1.11194	-0.0403948	0.552055	1.22433	-0.0296957	0.604028	1.07504	-0.0456328	0.48284	1.30614	-0.0559384	0.489154	1.29924	-0.13744	1.0371	0.0967612	-0.181763	0.611554	1.05739	-0.252745	0.975088	0.441456	-0.236542	0.947693	0.380306	-0.174868	0.96388	0.271646	-0.243551	0.735589	0.850095	-0.128372	0.863937	0.784501	-0.138416	0.851148	0.655048	-0.170781	1.08644	0.127774	-0.266515	0.642923	1.48538	-0.0807685	0.570991	1.43792	-0.130658	0.560608	1.38756	-0.069434
120	1.73	0.699737	1.53227	-0.318773	0.811803	1.45245	-0.258385	0.796104	1.50164	-0.46372	0.792646	1.0278	-0.425868	0.175767	0.308266	-0.355359	0.975557	1.22	-0.423698	0.878811	1.19705	-0.550845	0.997838	1.1562	-0.449711	0.784917	1.18399	-0.60706	0.735216	1.16941	-0.542255	0.206059	0.118551	-0.399883	0.619477	1.06666	-0.355414	0.442704	0.4182	-0.363762	0.353352	0.390465	-0.429377	0.331491	0.30739	-0.360629	0.647208	0.859083	-0.478709	0.658951	0.717194	-0.455204	0.555203	0.63628	-0.436279	0.254358	0.0984309	-0.310778	0.785275	1.41245	-0.549692	0.728541	1.33008	-0.54349	0.762278	1.26792	-0.587516	0.731533	1.53024	-0.145756	0.781701	1.0377	-0.170326	0.896228	0.11549	-0.258458	0.665371	1.11496	-0.040832	0.549995	1.22695	-0.0313852	0.60341	1.07763	-0.0472754	0.480877	1.30886	-0.0584516	0.48901	1.30173	-0.139539	1.07619	0.105232	-0.183334	0.613045	1.05984	-0.253118	0.978009	0.439511	-0.2367	0.956046	0.376195	-0.174013	0.983137	0.269788	-0.244291	0.735443	0.851428	-0.128147	0.862773	0.783646	-0.139436	0.846942	0.651883	-0.168552	1.11929	0.14359	-0.268878	0.642475	1.48747	-0.0805415	0.571487	1.44011	-0.13184	0.559183	1.39006	-0.0712645
121	1.74	0.699882	1.53284	-0.317499	0.811832	1.45291	-0.257615	0.795597	1.5032	-0.46239	0.791435	1.02988	-0.426081	0.169775	0.329922	-0.359	0.972229	1.22281	-0.418711	0.879546	1.19984	-0.54859	0.996403	1.15974	-0.444689	0.787263	1.18669	-0.607292	0.735951	1.17153	-0.543831	0.178738	0.138056	-0.402887	0.619539	1.06921	-0.355241	0.440033	0.420091	-0.364978	0.349835	0.397986	-0.431082	0.321466	0.316608	-0.362847	0.65029	0.859664	-0.477265	0.661675	0.717183	-0.454492	0.559051	0.635118	-0.435633	0.226016	0.112858	-0.314155	0.785324	1.41473	-0.548675	0.729096	1.33206	-0.543185	0.763839	1.2706	-0.588014	0.732426	1.5299	-0.144334	0.783124	1.03799	-0.171061	0.923303	0.107082	-0.257077	0.666313	1.11629	-0.0406716	0.549728	1.22779	-0.0321756	0.604589	1.07852	-0.0480293	0.480401	1.30957	-0.0598492	0.489706	1.30213	-0.140577	1.10487	0.113907	-0.184573	0.613868	1.06166	-0.253125	0.979366	0.436955	-0.236724	0.961301	0.372797	-0.173148	0.997041	0.268797	-0.244042	0.73476	0.850225	-0.128027	0.861045	0.780681	-0.140112	0.841912	0.646559	-0.166576	1.14214	0.157547	-0.269392	0.643011	1.48796	-0.0795925	0.572741	1.44039	-0.132075	0.559058	1.39055	-0.072196
122	1.75	0.700013	1.53251	-0.315759	0.811989	1.45228	-0.257062	0.794629	1.5036	-0.461332	0.789483	1.03152	-0.4267	0.164556	0.351806	-0.362556	0.968573	1.22273	-0.414445	0.879517	1.20053	-0.546941	0.993983	1.16021	-0.440517	0.78829	1.18813	-0.607499	0.735708	1.1721	-0.545176	0.155652	0.159843	-0.406219	0.618977	1.07059	-0.354525	0.44064	0.42008	-0.366125	0.349516	0.404723	-0.432797	0.313832	0.326068	-0.365184	0.653221	0.857578	-0.475343	0.666716	0.715091	-0.452486	0.566231	0.630753	-0.434767	0.200928	0.130401	-0.317029	0.784042	1.41562	-0.547625	0.728484	1.33264	-0.54242	0.764073	1.27195	-0.588295	0.733893	1.52843	-0.142602	0.783963	1.0373	-0.171846	0.940505	0.101818	-0.256708	0.668937	1.1159	-0.0400231	0.551307	1.22677	-0.0319612	0.607462	1.07775	-0.0478066	0.481423	1.3082	-0.0598964	0.491395	1.3004	-0.140397	1.12201	0.12012	-0.185307	0.613922	1.0625	-0.252554	0.979727	0.434368	-0.236907	0.964399	0.370169	-0.172815	1.00535	0.268096	-0.24383	0.732946	0.845853	-0.128016	0.858168	0.775184	-0.140315	0.836321	0.640113	-0.165748	1.1552	0.166643	-0.268739	0.644524	1.4867	-0.0777744	0.574581	1.43884	-0.131081	0.560246	1.38904	-0.0719884
123	1.76	0.700147	1.53128	-0.313575	0.81222	1.4505	-0.256666	0.793389	1.50281	-0.460451	0.786974	1.03239	-0.427651	0.161848	0.374429	-0.366242	0.964681	1.21977	-0.41105	0.878634	1.19906	-0.545978	0.99052	1.15756	-0.43724	0.787821	1.18821	-0.607641	0.734128	1.17129	-0.546148	0.138201	0.183708	-0.409982	0.617697	1.07006	-0.353264	0.444444	0.418749	-0.36683	0.352405	0.410581	-0.434628	0.30947	0.336024	-0.367495	0.65592	0.853159	-0.472964	0.673406	0.711093	-0.449363	0.575977	0.623746	-0.433801	0.180581	0.150716	-0.319738	0.78183	1.41518	-0.546575	0.727022	1.33198	-0.541521	0.763012	1.27191	-0.588324	0.735849	1.52586	-0.14066	0.784088	1.03589	-0.172672	0.947291	0.0981824	-0.25746	0.67322	1.11382	-0.0390119	0.554709	1.22387	-0.0306827	0.61203	1.07535	-0.0467232	0.483933	1.30479	-0.0583984	0.49427	1.29659	-0.138822	1.12805	0.12246	-0.185475	0.613179	1.06149	-0.251424	0.979156	0.431894	-0.237829	0.965665	0.367794	-0.173458	1.0082	0.266707	-0.244647	0.730125	0.83897	-0.127572	0.854263	0.767726	-0.139686	0.831681	0.633927	-0.166043	1.15961	0.170103	-0.268053	0.646923	1.48373	-0.0750931	0.576838	1.43566	-0.128721	0.562716	1.38557	-0.0704632
124	1.77	0.700309	1.52908	-0.311059	0.812431	1.44749	-0.256386	0.792003	1.50077	-0.45959	0.784149	1.03214	-0.428846	0.163946	0.397581	-0.369954	0.96053	1.21407	-0.408612	0.876668	1.19538	-0.545607	0.98594	1.1519	-0.434955	0.785708	1.18689	-0.607713	0.730903	1.16971	-0.546717	0.126885	0.209245	-0.414253	0.615649	1.06695	-0.351714	0.45125	0.416642	-0.366871	0.358455	0.415374	-0.436569	0.309082	0.346271	-0.369458	0.659081	0.847171	-0.47046	0.681142	0.705638	-0.445807	0.587325	0.615013	-0.432851	0.165625	0.173008	-0.32289	0.779143	1.41352	-0.545542	0.72489	1.33027	-0.540686	0.760732	1.27057	-0.588169	0.73819	1.52219	-0.138661	0.783399	1.03401	-0.173453	0.944291	0.0950728	-0.258989	0.679155	1.11019	-0.0376949	0.559823	1.21913	-0.0283349	0.618318	1.07129	-0.044989	0.487868	1.29945	-0.055285	0.498275	1.29082	-0.135736	1.12422	0.120647	-0.185324	0.611736	1.05781	-0.250032	0.977262	0.429069	-0.239896	0.964702	0.364924	-0.175176	1.00589	0.263773	-0.24681	0.727486	0.831881	-0.126231	0.850506	0.760257	-0.138072	0.829705	0.629185	-0.166888	1.1566	0.168283	-0.268382	0.650079	1.47921	-0.0717448	0.57941	1.43103	-0.125065	0.566362	1.38026	-0.0675877
125	1.78	0.700491	1.52576	-0.308379	0.812527	1.44317	-0.256203	0.790503	1.49744	-0.458625	0.781316	1.03055	-0.430178	0.172454	0.420143	-0.373178	0.956029	1.20584	-0.407218	0.873304	1.18959	-0.545571	0.980215	1.14341	-0.433834	0.781901	1.18422	-0.607799	0.726065	1.1678	-0.547007	0.121605	0.235622	-0.41889	0.613086	1.06117	-0.350232	0.460806	0.41406	-0.366505	0.367558	0.419048	-0.438566	0.313026	0.356289	-0.370884	0.663199	0.840396	-0.468709	0.689467	0.699303	-0.44299	0.599426	0.605477	-0.432151	0.155996	0.196126	-0.326809	0.776312	1.41073	-0.54454	0.722092	1.32765	-0.539959	0.757319	1.26806	-0.587951	0.740797	1.51744	-0.136777	0.781916	1.03168	-0.173924	0.932685	0.0924719	-0.260928	0.68665	1.10516	-0.0360807	0.566461	1.21269	-0.0249757	0.626225	1.06564	-0.0427353	0.49311	1.29229	-0.0506486	0.503102	1.28334	-0.131188	1.11169	0.114529	-0.185399	0.609899	1.05126	-0.248743	0.97348	0.42499	-0.242779	0.96094	0.360925	-0.177776	0.9987	0.258844	-0.24985	0.726621	0.827124	-0.124476	0.848508	0.755024	-0.136145	0.830623	0.626112	-0.167776	1.14697	0.16065	-0.270081	0.653848	1.47336	-0.0680405	0.582245	1.42507	-0.120359	0.571019	1.37324	-0.0635021
126	1.79	0.700597	1.52123	-0.305719	0.812475	1.43755	-0.256121	0.788854	1.49279	-0.457543	0.778753	1.02749	-0.43154	0.187401	0.440554	-0.37522	0.951088	1.19531	-0.40698	0.868309	1.18193	-0.545703	0.973376	1.13235	-0.434082	0.776447	1.18031	-0.60804	0.719997	1.16539	-0.547228	0.12208	0.261545	-0.423542	0.610514	1.05319	-0.349014	0.472871	0.411091	-0.366289	0.379587	0.421687	-0.440549	0.321323	0.365522	-0.371789	0.668005	0.83326	-0.46857	0.698048	0.692588	-0.442011	0.611807	0.595742	-0.432031	0.151566	0.218616	-0.331338	0.773395	1.40676	-0.543627	0.718558	1.32421	-0.539297	0.752835	1.26448	-0.587768	0.743529	1.51159	-0.135144	0.779866	1.02868	-0.173758	0.91378	0.0911342	-0.263144	0.695511	1.09895	-0.0341868	0.574393	1.20476	-0.0207262	0.635556	1.05857	-0.0399593	0.499502	1.28344	-0.0447134	0.508443	1.27445	-0.125434	1.09149	0.103857	-0.186212	0.608062	1.04247	-0.247712	0.967474	0.418768	-0.245538	0.954119	0.355313	-0.18099	0.986936	0.251731	-0.252879	0.728229	0.825405	-0.123716	0.849023	0.752725	-0.135284	0.832589	0.623636	-0.168527	1.13102	0.146081	-0.27271	0.658083	1.46632	-0.064264	0.58528	1.41779	-0.114913	0.576508	1.36473	-0.0584611
